# xmcd
#
# Track frame offsets:
#	150
#	9275
#	17202
#	26549
#	34561
#	42748
#	54792
#	66864
#	73196
#	76816
#	79458
#	91357
#	96879
#	102964
#	111343
#	115645
#	120025
#	124994
#	130681
#	134948
#	143975
#
# Disc length: 1996 seconds
#
# Revision: 0
# Processed by: cddbd v1.5.2PL0 Copyright (c) Steve Scherf et al.
# Submitted via: EasyCDDAExtractor 16.0.1.1
#
DISCID=1e07ca15
DTITLE=Jessi Colter - Jessi Colter Sings Just For Kids
DYEAR=1991
DGENRE=Country
TTITLE0=I'd Like To Sing With Kids
TTITLE1=La Cucaracha
TTITLE2=Old King Cole
TTITLE3=I'd Like To Teach The World
TTITLE4=A Windmill In Old Amsterdam
TTITLE5=The La La Song
TTITLE6=Octopus's Garden
TTITLE7=Mary Ann
TTITLE8=Frere Jacques
TTITLE9=Babushka Baio
TTITLE10=Too Ra Loo Ra Loo Ral
TTITLE11=Twinkle Twinkle Little Star
TTITLE12=This Land Is Your Land
TTITLE13=Choo Choo Ba
TTITLE14=London Bridge
TTITLE15=Did You Ever See A Lassie
TTITLE16=Jasmine Flower
TTITLE17=Bubbles And Bubbles
TTITLE18=Funiculi  Funicula
TTITLE19=He's Got The Whole Worl
TTITLE20=Aloha Oe
EXTD=Peter Pan Records\n9945-2\nSpecial Guest Appearance\nWAYLON jENNINGS\n
EXTT0=
EXTT1=
EXTT2=
EXTT3=
EXTT4=
EXTT5=
EXTT6=
EXTT7=
EXTT8=
EXTT9=
EXTT10=
EXTT11=
EXTT12=
EXTT13=
EXTT14=
EXTT15=
EXTT16=
EXTT17=
EXTT18=
EXTT19=
EXTT20=
PLAYORDER=
